<svg width="42" height="42" viewBox="0 0 42 42" fill="none" xmlns="http://www.w3.org/2000/svg">
<g clip-path="url(#clip0_29_219)">
<path d="M18.9003 28.6786C18.6459 29.7074 17.814 30.382 17.0415 30.1871C16.2689 29.9923 15.8486 28.9996 16.1031 27.9708C16.3575 26.9419 17.1893 26.2673 17.9619 26.4622C18.7344 26.6571 19.1547 27.6497 18.9003 28.6786ZM15.0781 29.1916C15.0464 30.0702 14.4828 30.7592 13.8221 30.7294C13.1615 30.6996 12.651 29.9634 12.6848 29.0861C12.7185 28.2088 13.2781 27.5173 13.9388 27.547C14.5995 27.5768 15.1099 28.3131 15.0762 29.1904L15.0781 29.1916ZM11.9211 32.8131C14.7298 30.6714 17.0236 31.1271 17.8415 31.6447C18.6595 32.1623 20.0534 34.0401 19.3204 37.4953C19.2701 37.7326 19.1715 37.9586 19.0411 38.1646L19.0211 38.1962C18.6977 38.7072 18.0219 38.8592 17.5109 38.5359C17.2831 38.3918 17.0749 38.2212 16.8901 38.0266L15.423 36.488C15.1676 36.221 14.8507 36.0205 14.5001 35.904L12.4815 35.2368C12.2266 35.1532 11.9832 35.038 11.7555 34.8939C11.2445 34.5706 11.0925 33.8947 11.4158 33.3837L11.4359 33.352C11.5662 33.1461 11.7283 32.9601 11.9211 32.8131ZM20.3896 34.8852C20.0798 34.3009 20.4612 33.4966 21.2416 33.0918C22.0219 32.6869 22.9038 32.8317 23.2136 33.4161C23.5234 34.0004 23.142 34.8047 22.3616 35.2095C21.5813 35.6143 20.6994 35.4695 20.3896 34.8852ZM19.3429 31.6434C18.836 31.0287 19.0895 29.9881 19.9104 29.3177C20.7312 28.6473 21.8082 28.6021 22.3151 29.2169C22.822 29.8316 22.5685 30.8721 21.7476 31.5426C20.9267 32.213 19.8497 32.2582 19.3429 31.6434Z" fill="white"/>
</g>
<g clip-path="url(#clip1_29_219)">
<path d="M13.0338 9.25564C12.6852 10.6251 11.57 11.517 10.5417 11.2501C9.51339 10.9833 8.96206 9.65597 9.31066 8.2865C9.65926 6.91703 10.7745 6.02517 11.8027 6.29202C12.831 6.55887 13.3824 7.88617 13.0338 9.25564ZM7.93301 9.90491C7.8827 11.076 7.125 11.9895 6.24438 11.9438C5.36376 11.8981 4.68993 10.9118 4.74287 9.74242C4.79581 8.57301 5.54825 7.65611 6.42887 7.70182C7.30949 7.74753 7.98332 8.73382 7.93038 9.90322L7.93301 9.90491ZM3.69077 14.7048C7.45505 11.8747 10.5092 12.5033 11.5951 13.2008C12.681 13.8984 14.5224 16.4147 13.5136 21.0149C13.4444 21.3307 13.3108 21.6312 13.1352 21.9046L13.1082 21.9467C12.6724 22.625 11.7699 22.8216 11.0915 22.3858C10.7892 22.1916 10.5131 21.9622 10.2685 21.7011L8.32639 19.6364C7.9883 19.278 7.56762 19.0078 7.10116 18.8493L4.41585 17.9414C4.07671 17.8275 3.75333 17.6718 3.45097 17.4776C2.77263 17.0418 2.57612 16.1393 3.01188 15.4609L3.03891 15.4189C3.21456 15.1454 3.43229 14.899 3.69077 14.7048ZM14.9629 17.5446C14.5552 16.7627 15.071 15.6937 16.1152 15.1611C17.1594 14.6284 18.3339 14.8295 18.7416 15.6114C19.1493 16.3933 18.6335 17.4622 17.5893 17.9949C16.5452 18.5275 15.3706 18.3265 14.9629 17.5446ZM13.5968 13.2127C12.9266 12.3885 13.2741 11.0034 14.3747 10.117C15.4752 9.23061 16.9116 9.1802 17.5818 10.0044C18.252 10.8287 17.9046 12.2137 16.804 13.1002C15.7034 13.9866 14.2671 14.037 13.5968 13.2127Z" fill="white"/>
</g>
<g clip-path="url(#clip2_29_219)">
<path d="M33.5233 7.45831C33.2265 8.65865 32.256 9.44568 31.3547 9.21833C30.4534 8.99099 29.9631 7.83291 30.2599 6.63257C30.5567 5.43223 31.5272 4.64521 32.4285 4.87255C33.3298 5.0999 33.8202 6.25797 33.5233 7.45831ZM29.0642 8.05688C29.0271 9.08186 28.3696 9.88571 27.5988 9.85097C26.828 9.81623 26.2325 8.95727 26.2719 7.93375C26.3112 6.91023 26.9641 6.10346 27.7349 6.1382C28.5057 6.17294 29.1012 7.03189 29.0618 8.05541L29.0642 8.05688ZM25.381 12.282C28.6577 9.78326 31.3338 10.315 32.2881 10.9189C33.2424 11.5227 34.8687 13.7135 34.0134 17.7446C33.9548 18.0213 33.8397 18.285 33.6876 18.5253L33.6642 18.5623C33.287 19.1584 32.4985 19.3358 31.9024 18.9585C31.6366 18.7904 31.3937 18.5914 31.1781 18.3644L29.4665 16.5693C29.1685 16.2578 28.7988 16.0239 28.3897 15.888L26.0347 15.1096C25.7373 15.012 25.4534 14.8777 25.1877 14.7096C24.5916 14.3323 24.4142 13.5438 24.7915 12.9477L24.8148 12.9107C24.9669 12.6704 25.1559 12.4535 25.381 12.282ZM35.2608 14.6994C34.8994 14.0177 35.3444 13.0793 36.2548 12.6071C37.1652 12.1348 38.1941 12.3037 38.5555 12.9854C38.9169 13.6671 38.472 14.6055 37.5616 15.0778C36.6511 15.5501 35.6222 15.3811 35.2608 14.6994ZM34.0397 10.9173C33.4483 10.2001 33.7441 8.98617 34.7017 8.204C35.6594 7.42183 36.9159 7.36914 37.5073 8.08633C38.0986 8.80353 37.8028 10.0175 36.8452 10.7997C35.8875 11.5818 34.631 11.6345 34.0397 10.9173Z" fill="white"/>
</g>
<defs>
<clipPath id="clip0_29_219">
<rect width="12" height="12" fill="white" transform="translate(15.5786 24) rotate(32.3253)"/>
</clipPath>
<clipPath id="clip1_29_219">
<rect width="16" height="16" fill="white" transform="translate(8.64771 2.98748) rotate(32.7164)"/>
</clipPath>
<clipPath id="clip2_29_219">
<rect width="14" height="14" fill="white" transform="translate(29.6482 2) rotate(32.3253)"/>
</clipPath>
</defs>
</svg>
